<?xml version="1.0" encoding="iso-8859-1"?>
<!-- Generator: Adobe Illustrator 19.0.0, SVG Export Plug-In . SVG Version: 6.00 Build 0)  -->
<svg version="1.1" id="Capa_1" xmlns="http://www.w3.org/2000/svg" xmlns:xlink="http://www.w3.org/1999/xlink" x="0px" y="0px"
	 viewBox="0 0 512 512" style="enable-background:new 0 0 512 512;" xml:space="preserve">
<g>
	<path style="fill:#FFD782;" d="M256,78.102L256,78.102c38.339,0,69.424,31.084,69.424,69.424v130.169l0,0H186.576l0,0V147.525
		C186.576,109.186,217.661,78.102,256,78.102z"/>
	<rect x="4.339" y="312.407" style="fill:#FFD782;" width="69.424" height="104.136"/>
	<rect x="438.237" y="312.407" style="fill:#FFD782;" width="69.424" height="104.136"/>
</g>
<g>
	<path style="fill:#FDBD40;" d="M125.831,182.237H56.407c-4.79,0-8.678-3.888-8.678-8.678s3.888-8.678,8.678-8.678h60.746v-86.78
		H65.085v52.068h26.034c4.79,0,8.678,3.888,8.678,8.678s-3.888,8.678-8.678,8.678H56.407c-4.79,0-8.678-3.888-8.678-8.678V69.424
		c0-4.79,3.888-8.678,8.678-8.678h69.424c4.79,0,8.678,3.888,8.678,8.678v104.136C134.508,178.35,130.621,182.237,125.831,182.237z"
		/>
	<path style="fill:#FDBD40;" d="M117.153,216.949H65.085c-4.79,0-8.678-3.888-8.678-8.678c0-4.79,3.888-8.678,8.678-8.678h52.068
		c4.79,0,8.678,3.888,8.678,8.678C125.831,213.061,121.943,216.949,117.153,216.949z"/>
	<path style="fill:#FDBD40;" d="M108.475,251.661H73.763c-4.79,0-8.678-3.888-8.678-8.678s3.888-8.678,8.678-8.678h34.712
		c4.79,0,8.678,3.888,8.678,8.678S113.265,251.661,108.475,251.661z"/>
	<path style="fill:#FDBD40;" d="M56.407,43.39c-2.3,0-4.513-0.911-6.135-2.543L32.916,23.491c-3.332-3.445-3.237-8.938,0.217-12.271
		c3.367-3.246,8.695-3.246,12.054,0l17.356,17.356c3.384,3.393,3.384,8.886,0,12.271C60.911,42.479,58.706,43.39,56.407,43.39z"/>
	<path style="fill:#FDBD40;" d="M91.119,43.39c-4.79,0-8.678-3.888-8.678-8.678V8.678c0-4.79,3.888-8.678,8.678-8.678
		s8.678,3.888,8.678,8.678v26.034C99.797,39.502,95.909,43.39,91.119,43.39z"/>
	<path style="fill:#FDBD40;" d="M125.831,43.39c-4.79,0-8.678-3.888-8.678-8.678c0-2.3,0.911-4.504,2.543-6.135l17.356-17.356
		c3.332-3.445,8.825-3.541,12.271-0.217c3.445,3.324,3.541,8.825,0.217,12.271c-0.069,0.069-0.139,0.148-0.217,0.217l-17.356,17.356
		C130.343,42.479,128.13,43.39,125.831,43.39z"/>
</g>
<path style="fill:#238892;" d="M256,234.305c-4.79,0-8.678-3.888-8.678-8.678v-34.712c0-4.79,3.888-8.678,8.678-8.678
	c4.79,0,8.678,3.888,8.678,8.678v34.712C264.678,230.417,260.79,234.305,256,234.305z"/>
<polygon style="fill:#36AFAD;" points="39.051,277.695 39.051,312.407 73.763,312.407 73.763,416.542 39.051,416.542 39.051,512 
	256,512 256,277.695 "/>
<polygon style="fill:#238892;" points="438.237,416.542 438.237,312.407 472.949,312.407 472.949,277.695 256,277.695 256,512 
	472.949,512 472.949,416.542 "/>
<g>
</g>
<g>
</g>
<g>
</g>
<g>
</g>
<g>
</g>
<g>
</g>
<g>
</g>
<g>
</g>
<g>
</g>
<g>
</g>
<g>
</g>
<g>
</g>
<g>
</g>
<g>
</g>
<g>
</g>
</svg>
