<?xml version="1.0" encoding="iso-8859-1"?>
<!-- Generator: Adobe Illustrator 19.0.0, SVG Export Plug-In . SVG Version: 6.00 Build 0)  -->
<svg version="1.1" id="Capa_1" xmlns="http://www.w3.org/2000/svg" xmlns:xlink="http://www.w3.org/1999/xlink" x="0px" y="0px"
	 viewBox="0 0 496.485 496.485" style="enable-background:new 0 0 496.485 496.485;" xml:space="preserve">
<circle style="fill:#FDBF5E;" cx="248.814" cy="182.303" r="182.303"/>
<path style="fill:#2EA2DB;" d="M469.905,489.503v-69.042c0-42.667-31.03-83.782-83.006-109.382l-56.63-31.03l-81.455,63.612
	l-80.679-63.612l-56.63,31.03c-52.752,25.6-83.782,66.715-83.782,109.382v69.042H469.905z"/>
<path style="fill:#193651;" d="M469.905,496.485H27.723c-3.879,0-6.982-3.103-6.982-6.982v-69.042
	c0-45.77,32.582-89.212,86.885-115.588l56.63-31.03c2.327-1.552,5.43-0.776,7.758,0.776l76.024,59.733l76.024-59.733
	c2.327-1.552,5.43-2.327,7.758-0.776l56.63,31.03c54.303,27.152,86.885,69.818,86.885,115.588v69.042
	C476.887,493.382,473.784,496.485,469.905,496.485z M35.481,481.745h426.667v-61.285c0-40.339-29.479-78.352-79.127-103.176
	l-52.751-28.703l-76.8,60.509c-2.327,2.327-6.206,2.327-9.309,0l-76.8-60.509l-52.752,28.703
	c-49.648,24.824-79.127,63.612-79.127,103.176V481.745z"/>
<path style="fill:#FFFFFF;" d="M339.578,152.048c0,49.648-41.115,128-92.315,128s-92.315-78.352-92.315-128
	s41.115-93.867,92.315-93.867S339.578,101.624,339.578,152.048z"/>
<path style="fill:#193651;" d="M247.263,287.03c-56.63,0-99.297-82.23-99.297-134.982c0-55.079,45.77-100.848,99.297-100.848
	c54.303,0,99.297,46.545,99.297,100.848C346.56,204.8,303.893,287.03,247.263,287.03z M247.263,65.164
	c-45.77,0-85.333,39.564-85.333,86.109s38.788,121.018,85.333,121.018s85.333-74.473,85.333-121.018S293.032,65.164,247.263,65.164z
	"/>
<path style="fill:#F16051;" d="M265.881,49.648c-39.564-8.533-58.182,12.412-60.509,18.618c-0.776,0.776-2.327,1.552-3.103,1.552
	c-58.182-13.188-47.321,81.455-47.321,81.455c0,15.515,3.879,33.358,10.861,51.2c0-13.964,1.552-75.248,33.358-65.939
	c0,0,38.788,30.255,91.539,0.776c0,0,33.358-13.188,38.788,63.612C335.699,183.855,381.469,76.024,265.881,49.648z"/>
<path style="fill:#193651;" d="M165.808,210.23c-3.103,0-5.43-1.552-6.982-4.655c-6.982-18.618-11.636-37.236-11.636-53.527
	c-0.776-6.206-6.206-58.958,17.842-80.679c9.309-7.758,20.17-10.861,34.133-8.533c6.982-11.636,29.479-28.703,67.491-20.17
	c35.685,7.758,60.509,24.824,73.697,48.873c14.739,27.927,13.964,65.164-3.879,110.158l-0.776,1.552
	c-1.552,3.879-5.43,5.43-9.309,3.879c-3.879-1.552-5.43-5.43-3.879-9.309l0.776-1.552c15.515-41.115,17.067-74.473,4.655-98.521
	c-10.861-20.17-32.582-34.133-63.612-41.115c-34.909-7.758-50.424,10.861-51.976,13.964c-0.776,1.552-1.552,3.103-3.103,3.879
	c-0.776,0.776-2.327,0.776-3.103,1.552c-2.327,1.552-3.879,2.327-6.206,1.552c-10.861-2.327-18.618-0.776-24.824,4.655
	c-16.291,14.739-15.515,54.303-13.188,68.267v0.776c0,13.964,3.879,31.806,10.085,48.097c1.552,3.879,0,7.758-3.879,9.309
	C167.36,210.23,166.584,210.23,165.808,210.23z"/>
<rect x="158.051" y="374.691" style="fill:#E1E6E9;" width="181.527" height="114.036"/>
<path style="fill:#193651;" d="M339.578,496.485H158.051c-3.879,0-6.982-3.103-6.982-6.982V374.691c0-3.879,3.103-6.982,6.982-6.982
	h181.527c3.879,0,6.982,3.103,6.982,6.982v114.036C347.335,493.382,344.232,496.485,339.578,496.485z M165.808,481.745h166.788
	v-99.297H165.808V481.745z"/>
<rect x="186.288" y="403.084" style="fill:#FFFFFF;" width="124.897" height="57.406"/>
<rect x="339.578" y="453.818" style="fill:#E1E6E9;" width="37.236" height="35.685"/>
<path style="fill:#193651;" d="M376.814,496.485h-37.236c-3.879,0-6.982-3.103-6.982-6.982v-35.685c0-3.879,3.103-6.982,6.982-6.982
	h37.236c3.879,0,6.982,3.103,6.982,6.982v35.685C383.796,493.382,380.693,496.485,376.814,496.485z M346.56,481.745h22.497V460.8
	H346.56V481.745z"/>
<rect x="120.814" y="453.818" style="fill:#E1E6E9;" width="37.236" height="35.685"/>
<g>
	<path style="fill:#193651;" d="M158.051,496.485h-37.236c-3.879,0-6.982-3.103-6.982-6.982v-35.685
		c0-3.879,3.103-6.982,6.982-6.982h37.236c3.879,0,6.982,3.103,6.982,6.982v35.685C165.808,493.382,162.705,496.485,158.051,496.485
		z M128.572,481.745h22.497V460.8h-22.497V481.745z"/>
	<rect x="203.044" y="425.115" style="fill:#193651;" width="14.739" height="13.964"/>
	<rect x="241.832" y="425.115" style="fill:#193651;" width="14.739" height="13.964"/>
	<rect x="279.844" y="425.115" style="fill:#193651;" width="14.739" height="13.964"/>
</g>
<g>
</g>
<g>
</g>
<g>
</g>
<g>
</g>
<g>
</g>
<g>
</g>
<g>
</g>
<g>
</g>
<g>
</g>
<g>
</g>
<g>
</g>
<g>
</g>
<g>
</g>
<g>
</g>
<g>
</g>
</svg>
